<?xml version="1.0" standalone="no"?><!DOCTYPE svg PUBLIC "-//W3C//DTD SVG 1.1//EN" "http://www.w3.org/Graphics/SVG/1.1/DTD/svg11.dtd"><svg t="1643255207616" class="icon" viewBox="0 0 1030 1024" version="1.1" xmlns="http://www.w3.org/2000/svg" p-id="3268" xmlns:xlink="http://www.w3.org/1999/xlink" width="201.171875" height="200"><defs><style type="text/css"></style></defs><path d="M1030.56 449.632c-80.576-2.656-125.92-40.928-187.136-62.368v103.968h187.136v124.768l-187.136-5.184v213.12h-181.92v-207.904c-173.12 0.864-331.84 44.896-473.024 83.168v124.736H79.328v-88.352l-72.768 31.2V720l72.768-36.384-5.184-72.768-62.368 67.584H6.592v-20.8c48.704-68.032 73.888-126.88 72.768-249.504 105.632 9.76 132.224 76.288 218.304 98.752 178.336 46.56 324.928-122.56 363.872-233.92 12.448-35.584-6.656-51.264 15.584-72.768l166.336 41.568c7.168 78.848 119.36 136.416 187.136 155.936v51.968zM656.288 314.464c-40.736 76.352-100.096 117.472-155.936 176.736 63.04-19.264 111.232-60.352 161.152-93.568l-5.184-83.168z m187.136 0v36.384l103.968 41.568-103.968-77.984z m-192.32 119.552C549.568 522.688 344.768 554.304 188.48 512v114.368l187.136-62.368 285.888-57.184c1.792-28.16 2.88-59.36-10.4-72.768z m-462.624 31.2c1.376 27.488-1.216 25.056 15.584 36.384 24.256 15.232 86.848 27.36 114.368 20.8-46.016-21.376-89.888-39.04-129.952-57.184z m-114.368 83.168l-25.984 67.584 31.2-25.984-5.184-41.568z" p-id="3269"></path></svg>